<?xml version="1.0" encoding="UTF-8"?>
<svg xmlns="http://www.w3.org/2000/svg" xmlns:xlink="http://www.w3.org/1999/xlink" width="64px" height="64px" viewBox="0 0 64 63" version="1.1">
<g id="surface1">
<path style=" stroke:none;fill-rule:nonzero;fill:rgb(29.411766%,62.352943%,97.254902%);fill-opacity:1;" d="M 32.445312 0 C 32.914062 0.285156 33.101562 0.535156 33.339844 1.007812 C 33.46875 1.0625 33.46875 1.0625 33.597656 1.125 C 33.949219 1.308594 33.992188 1.523438 34.109375 1.886719 C 34.191406 1.886719 34.277344 1.886719 34.363281 1.886719 C 34.414062 2.039062 34.414062 2.039062 34.46875 2.191406 C 34.542969 2.351562 34.542969 2.351562 34.617188 2.515625 C 34.746094 2.554688 34.871094 2.597656 35.003906 2.640625 C 35.152344 2.964844 35.152344 2.964844 35.257812 3.269531 C 35.339844 3.269531 35.425781 3.269531 35.511719 3.269531 C 35.5625 3.421875 35.5625 3.421875 35.617188 3.574219 C 35.691406 3.734375 35.691406 3.734375 35.769531 3.898438 C 35.894531 3.941406 36.019531 3.980469 36.152344 4.023438 C 36.195312 4.191406 36.238281 4.359375 36.28125 4.527344 C 36.40625 4.570312 36.53125 4.609375 36.664062 4.652344 C 36.746094 4.863281 36.832031 5.070312 36.917969 5.28125 C 37.042969 5.324219 37.171875 5.363281 37.300781 5.40625 C 37.34375 5.574219 37.386719 5.742188 37.429688 5.910156 C 37.554688 5.953125 37.683594 5.992188 37.8125 6.035156 C 37.898438 6.246094 37.984375 6.457031 38.066406 6.664062 C 38.195312 6.707031 38.320312 6.746094 38.449219 6.789062 C 38.492188 6.957031 38.535156 7.125 38.578125 7.292969 C 38.707031 7.335938 38.832031 7.375 38.960938 7.417969 C 39.046875 7.628906 39.132812 7.839844 39.21875 8.046875 C 39.34375 8.089844 39.46875 8.132812 39.601562 8.171875 C 39.644531 8.339844 39.6875 8.507812 39.730469 8.675781 C 39.855469 8.71875 39.980469 8.757812 40.113281 8.800781 C 40.195312 9.011719 40.28125 9.222656 40.367188 9.429688 C 40.492188 9.472656 40.621094 9.515625 40.75 9.558594 C 40.792969 9.722656 40.835938 9.890625 40.878906 10.058594 C 41.003906 10.101562 41.132812 10.144531 41.261719 10.1875 C 41.347656 10.394531 41.433594 10.605469 41.515625 10.8125 C 41.644531 10.855469 41.769531 10.898438 41.898438 10.941406 C 41.941406 11.109375 41.984375 11.277344 42.027344 11.441406 C 42.15625 11.484375 42.28125 11.527344 42.410156 11.570312 C 42.496094 11.777344 42.582031 11.988281 42.667969 12.199219 C 42.792969 12.238281 42.917969 12.28125 43.050781 12.324219 C 43.09375 12.492188 43.136719 12.660156 43.175781 12.828125 C 43.304688 12.867188 43.429688 12.910156 43.5625 12.953125 C 43.644531 13.160156 43.730469 13.371094 43.816406 13.582031 C 43.941406 13.621094 44.070312 13.664062 44.199219 13.707031 C 44.242188 13.875 44.285156 14.042969 44.328125 14.210938 C 44.453125 14.25 44.582031 14.292969 44.710938 14.335938 C 44.796875 14.542969 44.882812 14.753906 44.964844 14.964844 C 45.09375 15.003906 45.21875 15.046875 45.347656 15.089844 C 45.390625 15.257812 45.433594 15.425781 45.476562 15.59375 C 45.601562 15.632812 45.730469 15.675781 45.859375 15.71875 C 45.945312 15.929688 46.03125 16.136719 46.117188 16.347656 C 46.242188 16.390625 46.367188 16.429688 46.5 16.472656 C 46.542969 16.640625 46.585938 16.808594 46.625 16.976562 C 46.753906 17.015625 46.878906 17.058594 47.011719 17.101562 C 47.09375 17.3125 47.179688 17.519531 47.265625 17.730469 C 47.390625 17.773438 47.519531 17.8125 47.648438 17.855469 C 47.691406 18.023438 47.734375 18.191406 47.777344 18.359375 C 47.902344 18.402344 48.03125 18.441406 48.160156 18.484375 C 48.246094 18.695312 48.328125 18.902344 48.414062 19.113281 C 48.542969 19.15625 48.667969 19.195312 48.796875 19.238281 C 48.839844 19.40625 48.882812 19.574219 48.925781 19.742188 C 49.050781 19.785156 49.179688 19.824219 49.308594 19.867188 C 49.394531 20.078125 49.480469 20.289062 49.566406 20.496094 C 49.691406 20.539062 49.816406 20.578125 49.949219 20.621094 C 49.992188 20.789062 50.035156 20.957031 50.074219 21.125 C 50.203125 21.167969 50.328125 21.207031 50.460938 21.25 C 50.542969 21.460938 50.628906 21.671875 50.714844 21.878906 C 50.839844 21.921875 50.96875 21.964844 51.097656 22.007812 C 51.140625 22.171875 51.183594 22.339844 51.226562 22.507812 C 51.351562 22.550781 51.476562 22.59375 51.609375 22.632812 C 51.695312 22.894531 51.695312 22.894531 51.738281 23.136719 C 51.820312 23.136719 51.90625 23.136719 51.992188 23.136719 C 52.027344 23.210938 52.058594 23.28125 52.097656 23.359375 C 52.25 23.644531 52.429688 23.886719 52.628906 24.144531 C 53.140625 24.898438 53.140625 24.898438 53.269531 25.277344 C 53.394531 25.359375 53.523438 25.441406 53.652344 25.527344 C 53.652344 25.652344 53.652344 25.777344 53.652344 25.902344 C 53.734375 25.980469 53.816406 26.058594 53.898438 26.140625 C 54.207031 26.449219 54.214844 26.621094 54.292969 27.035156 C 54.417969 27.164062 54.546875 27.289062 54.675781 27.414062 C 54.996094 27.9375 55.210938 28.441406 55.3125 29.046875 C 55.355469 29.132812 55.398438 29.214844 55.441406 29.300781 C 55.625 29.664062 55.695312 30.023438 55.695312 30.429688 C 55.78125 30.472656 55.863281 30.515625 55.953125 30.558594 C 55.910156 30.640625 55.867188 30.722656 55.824219 30.808594 C 55.910156 30.851562 55.992188 30.890625 56.078125 30.933594 C 56.167969 31.179688 56.167969 31.179688 56.207031 31.4375 C 56.164062 31.519531 56.125 31.601562 56.078125 31.6875 C 56.164062 31.730469 56.25 31.773438 56.335938 31.8125 C 56.292969 31.9375 56.25 32.0625 56.207031 32.191406 C 56.292969 32.234375 56.375 32.273438 56.464844 32.316406 C 56.421875 32.441406 56.378906 32.566406 56.335938 32.695312 C 56.417969 32.734375 56.503906 32.777344 56.589844 32.820312 C 56.652344 33.054688 56.652344 33.054688 56.695312 33.363281 C 56.71875 33.53125 56.71875 33.53125 56.742188 33.703125 C 56.765625 33.878906 56.765625 33.878906 56.789062 34.0625 C 56.804688 34.175781 56.824219 34.289062 56.839844 34.40625 C 57.3125 37.828125 57.152344 41.1875 56.40625 44.5625 C 56.328125 44.875 56.328125 44.875 56.335938 45.144531 C 56.25 45.144531 56.167969 45.144531 56.078125 45.144531 C 56.121094 45.269531 56.164062 45.394531 56.207031 45.519531 C 56.125 45.519531 56.039062 45.519531 55.953125 45.519531 C 55.996094 45.644531 56.035156 45.769531 56.078125 45.898438 C 55.996094 45.898438 55.910156 45.898438 55.824219 45.898438 C 55.867188 46.023438 55.910156 46.148438 55.953125 46.277344 C 55.867188 46.277344 55.785156 46.277344 55.695312 46.277344 C 55.738281 46.398438 55.78125 46.523438 55.824219 46.652344 C 55.738281 46.652344 55.65625 46.652344 55.570312 46.652344 C 55.609375 46.777344 55.652344 46.902344 55.695312 47.03125 C 55.574219 47.285156 55.445312 47.535156 55.3125 47.785156 C 55.277344 47.898438 55.238281 48.011719 55.199219 48.128906 C 55.042969 48.585938 54.839844 49.007812 54.617188 49.433594 C 54.582031 49.511719 54.542969 49.585938 54.503906 49.667969 C 54.292969 50.078125 54.0625 50.4375 53.78125 50.800781 C 53.738281 50.925781 53.695312 51.050781 53.652344 51.179688 C 53.570312 51.261719 53.484375 51.34375 53.398438 51.429688 C 53.355469 51.515625 53.3125 51.597656 53.269531 51.683594 C 52.246094 53.191406 52.246094 53.191406 51.863281 53.570312 C 51.820312 53.652344 51.78125 53.734375 51.738281 53.820312 C 51.609375 53.945312 51.480469 54.070312 51.351562 54.199219 C 51.269531 54.320312 51.183594 54.445312 51.097656 54.574219 C 50.90625 54.726562 50.90625 54.726562 50.714844 54.882812 C 50.332031 55.160156 50.332031 55.160156 50.207031 55.453125 C 50.058594 55.738281 49.910156 55.875 49.660156 56.074219 C 49.582031 56.140625 49.503906 56.203125 49.421875 56.269531 C 49.265625 56.394531 49.109375 56.515625 48.953125 56.640625 C 48.769531 56.785156 48.59375 56.9375 48.414062 57.089844 C 48.414062 57.171875 48.414062 57.253906 48.414062 57.339844 C 48.203125 57.425781 47.992188 57.507812 47.777344 57.59375 C 47.777344 57.675781 47.777344 57.757812 47.777344 57.84375 C 47.566406 57.925781 47.355469 58.011719 47.136719 58.097656 C 47.136719 58.179688 47.136719 58.261719 47.136719 58.347656 C 47.011719 58.390625 46.886719 58.429688 46.753906 58.472656 C 46.582031 58.59375 46.410156 58.722656 46.242188 58.851562 C 45.859375 59.101562 45.859375 59.101562 45.476562 59.226562 C 45.394531 59.351562 45.308594 59.476562 45.222656 59.605469 C 45.09375 59.605469 44.96875 59.605469 44.839844 59.605469 C 44.753906 59.6875 44.667969 59.769531 44.582031 59.855469 C 44.5 59.9375 44.414062 60.023438 44.328125 60.109375 C 44.199219 60.109375 44.074219 60.109375 43.945312 60.109375 C 43.816406 60.234375 43.6875 60.359375 43.5625 60.484375 C 43.316406 60.625 43.0625 60.753906 42.808594 60.878906 C 42.679688 60.941406 42.546875 61.007812 42.414062 61.074219 C 42.0625 61.222656 41.761719 61.292969 41.390625 61.367188 C 41.261719 61.449219 41.136719 61.53125 41.007812 61.617188 C 40.792969 61.660156 40.582031 61.699219 40.367188 61.742188 C 40.242188 61.824219 40.113281 61.910156 39.984375 61.992188 C 39.6875 62.003906 39.386719 62.003906 39.089844 61.992188 C 39.046875 62.078125 39.003906 62.160156 38.960938 62.246094 C 38.660156 62.328125 38.660156 62.328125 38.257812 62.402344 C 38.113281 62.429688 37.96875 62.457031 37.820312 62.484375 C 37.667969 62.511719 37.515625 62.539062 37.355469 62.566406 C 37.207031 62.59375 37.058594 62.625 36.90625 62.652344 C 35.757812 62.863281 34.648438 63.019531 33.480469 63.03125 C 33.375 63.03125 33.269531 63.03125 33.15625 63.035156 C 32.816406 63.035156 32.472656 63.039062 32.128906 63.039062 C 31.953125 63.039062 31.953125 63.039062 31.773438 63.039062 C 29.902344 63.042969 28.144531 62.914062 26.316406 62.496094 C 26.144531 62.460938 25.972656 62.425781 25.796875 62.386719 C 25.414062 62.304688 25.035156 62.214844 24.65625 62.121094 C 24.503906 62.085938 24.503906 62.085938 24.347656 62.050781 C 24.011719 61.972656 23.695312 61.898438 23.386719 61.746094 C 23.011719 61.5625 22.617188 61.457031 22.21875 61.335938 C 21.972656 61.238281 21.972656 61.238281 21.84375 60.988281 C 21.632812 60.945312 21.417969 60.902344 21.207031 60.863281 C 20.980469 60.765625 20.761719 60.664062 20.542969 60.554688 C 20.378906 60.472656 20.378906 60.472656 20.210938 60.390625 C 19.929688 60.234375 19.929688 60.234375 19.671875 59.980469 C 19.566406 59.941406 19.460938 59.898438 19.351562 59.855469 C 19.035156 59.730469 19.035156 59.730469 18.777344 59.480469 C 18.425781 59.234375 18.425781 59.234375 18.140625 59.101562 C 17.707031 58.816406 17.277344 58.53125 16.863281 58.222656 C 16.773438 58.15625 16.683594 58.09375 16.589844 58.023438 C 16.351562 57.84375 16.351562 57.84375 16.097656 57.59375 C 15.96875 57.511719 15.84375 57.425781 15.710938 57.339844 C 15.613281 57.242188 15.519531 57.144531 15.417969 57.042969 C 15.082031 56.699219 15.082031 56.699219 14.667969 56.453125 C 14.304688 56.207031 14.222656 56.085938 14.050781 55.707031 C 13.925781 55.664062 13.800781 55.625 13.667969 55.582031 C 13.539062 55.375 13.410156 55.164062 13.285156 54.953125 C 13.117188 54.78125 12.949219 54.613281 12.773438 54.449219 C 12.644531 54.285156 12.515625 54.117188 12.390625 53.945312 C 12.1875 53.671875 11.996094 53.429688 11.753906 53.191406 C 11.496094 52.8125 11.496094 52.8125 11.371094 52.554688 C 11.246094 52.289062 11.246094 52.289062 10.984375 52.058594 C 10.347656 51.355469 10.347656 51.355469 10.347656 50.929688 C 10.265625 50.851562 10.183594 50.773438 10.101562 50.691406 C 9.792969 50.382812 9.785156 50.210938 9.707031 49.796875 C 9.527344 49.597656 9.527344 49.597656 9.324219 49.417969 C 9.082031 48.984375 8.9375 48.535156 8.785156 48.0625 C 8.6875 47.789062 8.566406 47.542969 8.429688 47.28125 C 8.339844 47.074219 8.253906 46.863281 8.167969 46.652344 C 8.125 46.546875 8.082031 46.441406 8.035156 46.332031 C 7.761719 45.605469 7.761719 45.605469 7.921875 45.144531 C 7.835938 45.101562 7.75 45.0625 7.664062 45.019531 C 7.578125 44.699219 7.578125 44.699219 7.503906 44.28125 C 7.476562 44.125 7.449219 43.972656 7.421875 43.816406 C 7.394531 43.65625 7.367188 43.496094 7.335938 43.328125 C 7.308594 43.171875 7.28125 43.015625 7.25 42.851562 C 6.714844 39.820312 6.714844 36.726562 7.28125 33.699219 C 7.300781 33.585938 7.324219 33.472656 7.34375 33.355469 C 7.410156 33.015625 7.476562 32.679688 7.542969 32.339844 C 7.566406 32.238281 7.585938 32.136719 7.609375 32.03125 C 7.660156 31.789062 7.726562 31.550781 7.792969 31.3125 C 7.875 31.269531 7.960938 31.226562 8.046875 31.1875 C 8.003906 31.0625 7.964844 30.9375 7.921875 30.808594 C 8.003906 30.808594 8.089844 30.808594 8.175781 30.808594 C 8.132812 30.683594 8.089844 30.558594 8.046875 30.429688 C 8.132812 30.429688 8.214844 30.429688 8.304688 30.429688 C 8.296875 30.320312 8.289062 30.214844 8.28125 30.101562 C 8.308594 29.613281 8.453125 29.347656 8.6875 28.921875 C 8.742188 28.75 8.742188 28.75 8.796875 28.578125 C 9.003906 27.992188 9.292969 27.457031 9.582031 26.910156 C 9.644531 26.773438 9.644531 26.773438 9.710938 26.636719 C 9.835938 26.40625 9.835938 26.40625 10.09375 26.15625 C 10.132812 26.03125 10.175781 25.90625 10.21875 25.777344 C 10.347656 25.652344 10.347656 25.652344 10.476562 25.527344 C 10.515625 25.402344 10.558594 25.277344 10.601562 25.148438 C 10.730469 25.023438 10.730469 25.023438 10.859375 24.898438 C 10.902344 24.816406 10.941406 24.730469 10.984375 24.648438 C 11.113281 24.394531 11.113281 24.394531 11.371094 24.144531 C 11.453125 24.019531 11.539062 23.894531 11.625 23.765625 C 11.828125 23.492188 12.019531 23.25 12.261719 23.011719 C 12.304688 22.929688 12.347656 22.847656 12.390625 22.761719 C 12.519531 22.632812 12.648438 22.507812 12.773438 22.382812 C 12.859375 22.257812 12.941406 22.132812 13.03125 22.007812 C 13.113281 21.921875 13.199219 21.839844 13.285156 21.753906 C 13.371094 21.628906 13.453125 21.503906 13.539062 21.378906 C 13.667969 21.25 13.796875 21.125 13.925781 21 C 14.007812 20.875 14.09375 20.75 14.179688 20.621094 C 14.265625 20.539062 14.347656 20.457031 14.433594 20.371094 C 14.519531 20.246094 14.605469 20.121094 14.691406 19.992188 C 14.820312 19.867188 14.945312 19.742188 15.074219 19.617188 C 15.15625 19.492188 15.242188 19.367188 15.328125 19.238281 C 15.414062 19.15625 15.496094 19.074219 15.585938 18.988281 C 15.667969 18.863281 15.753906 18.738281 15.839844 18.609375 C 15.96875 18.484375 16.097656 18.359375 16.222656 18.234375 C 16.308594 18.109375 16.390625 17.984375 16.480469 17.855469 C 16.5625 17.773438 16.648438 17.691406 16.734375 17.605469 C 16.820312 17.480469 16.902344 17.355469 16.988281 17.226562 C 17.117188 17.101562 17.246094 16.976562 17.375 16.851562 C 17.457031 16.726562 17.542969 16.601562 17.628906 16.472656 C 17.714844 16.390625 17.796875 16.308594 17.882812 16.222656 C 17.96875 16.097656 18.054688 15.972656 18.140625 15.84375 C 18.265625 15.71875 18.394531 15.59375 18.523438 15.46875 C 18.648438 15.28125 18.648438 15.28125 18.777344 15.089844 C 18.863281 15.007812 18.945312 14.925781 19.035156 14.839844 C 19.160156 14.652344 19.160156 14.652344 19.289062 14.460938 C 19.417969 14.335938 19.542969 14.210938 19.671875 14.082031 C 19.800781 13.898438 19.800781 13.898438 19.929688 13.707031 C 20.011719 13.625 20.097656 13.539062 20.183594 13.457031 C 20.308594 13.269531 20.308594 13.269531 20.4375 13.078125 C 20.566406 12.953125 20.695312 12.828125 20.824219 12.699219 C 20.949219 12.515625 20.949219 12.515625 21.078125 12.324219 C 21.207031 12.199219 21.332031 12.070312 21.460938 11.945312 C 21.503906 11.863281 21.546875 11.78125 21.589844 11.695312 C 21.714844 11.570312 21.84375 11.441406 21.972656 11.316406 C 22.097656 11.128906 22.097656 11.128906 22.226562 10.941406 C 22.355469 10.8125 22.484375 10.6875 22.609375 10.5625 C 22.652344 10.480469 22.695312 10.398438 22.738281 10.3125 C 22.867188 10.1875 22.992188 10.058594 23.121094 9.933594 C 23.25 9.746094 23.25 9.746094 23.378906 9.558594 C 23.503906 9.429688 23.632812 9.304688 23.761719 9.179688 C 23.800781 9.097656 23.84375 9.011719 23.886719 8.929688 C 24.015625 8.800781 24.144531 8.675781 24.269531 8.550781 C 24.398438 8.363281 24.398438 8.363281 24.527344 8.171875 C 24.59375 8.113281 24.660156 8.050781 24.726562 7.984375 C 24.941406 7.789062 24.941406 7.789062 25.039062 7.417969 C 25.164062 7.378906 25.289062 7.335938 25.421875 7.292969 C 25.511719 7.128906 25.59375 6.960938 25.675781 6.789062 C 25.804688 6.664062 25.933594 6.539062 26.058594 6.414062 C 26.101562 6.289062 26.144531 6.164062 26.1875 6.035156 C 26.3125 5.996094 26.441406 5.953125 26.570312 5.910156 C 26.660156 5.746094 26.746094 5.578125 26.828125 5.40625 C 26.953125 5.28125 27.082031 5.15625 27.210938 5.03125 C 27.25 4.90625 27.292969 4.78125 27.335938 4.652344 C 27.464844 4.609375 27.589844 4.570312 27.71875 4.527344 C 27.808594 4.363281 27.894531 4.195312 27.976562 4.023438 C 28.105469 3.898438 28.230469 3.773438 28.359375 3.648438 C 28.402344 3.523438 28.445312 3.398438 28.488281 3.269531 C 28.613281 3.226562 28.738281 3.1875 28.871094 3.144531 C 28.960938 2.976562 29.042969 2.808594 29.125 2.640625 C 29.253906 2.515625 29.382812 2.390625 29.507812 2.261719 C 29.550781 2.140625 29.59375 2.015625 29.636719 1.886719 C 29.761719 1.84375 29.890625 1.804688 30.019531 1.761719 C 30.109375 1.59375 30.195312 1.425781 30.277344 1.257812 C 30.402344 1.128906 30.527344 1.003906 30.660156 0.878906 C 30.742188 0.753906 30.828125 0.632812 30.914062 0.503906 C 31.414062 0.0117188 31.746094 -0.0976562 32.445312 0 Z M 30.914062 9.429688 C 30.824219 9.597656 30.738281 9.765625 30.660156 9.933594 C 30.492188 10.105469 30.320312 10.273438 30.148438 10.4375 C 29.976562 10.644531 29.804688 10.855469 29.636719 11.066406 C 29.425781 11.316406 29.210938 11.570312 28.996094 11.820312 C 28.839844 12.007812 28.839844 12.007812 28.679688 12.199219 C 28.464844 12.449219 28.25 12.699219 28.03125 12.945312 C 27.652344 13.417969 27.289062 13.898438 27.136719 14.492188 C 27.082031 14.710938 27.082031 14.710938 26.898438 14.886719 C 26.621094 15.167969 26.558594 15.472656 26.441406 15.84375 C 26.359375 16.011719 26.273438 16.179688 26.1875 16.347656 C 26.144531 16.472656 26.101562 16.601562 26.058594 16.730469 C 25.933594 17.101562 25.933594 17.101562 25.675781 17.480469 C 25.628906 17.644531 25.585938 17.8125 25.550781 17.980469 C 25.519531 18.097656 25.488281 18.210938 25.457031 18.332031 C 25.40625 18.519531 25.40625 18.519531 25.355469 18.714844 C 25.324219 18.839844 25.292969 18.964844 25.257812 19.09375 C 25.03125 20.078125 25.015625 21.039062 25.015625 22.046875 C 25.011719 22.191406 25.011719 22.339844 25.007812 22.492188 C 25.007812 23.605469 25.101562 24.621094 25.550781 25.652344 C 25.570312 25.765625 25.589844 25.882812 25.613281 26 C 25.644531 26.136719 25.644531 26.136719 25.675781 26.28125 C 25.761719 26.324219 25.84375 26.363281 25.933594 26.40625 C 25.957031 26.546875 25.957031 26.546875 25.980469 26.691406 C 26.078125 27.117188 26.289062 27.328125 26.570312 27.664062 C 26.617188 27.832031 26.660156 28 26.699219 28.167969 C 26.871094 28.425781 26.871094 28.425781 27.082031 28.671875 C 27.171875 28.796875 27.171875 28.796875 27.265625 28.921875 C 27.464844 29.183594 27.464844 29.183594 27.730469 29.425781 C 27.976562 29.675781 27.976562 29.675781 28.09375 29.921875 C 28.246094 30.207031 28.398438 30.347656 28.65625 30.550781 C 29.046875 30.867188 29.402344 31.207031 29.765625 31.5625 C 30.039062 31.78125 30.308594 31.960938 30.609375 32.136719 C 30.914062 32.316406 30.914062 32.316406 31.167969 32.570312 C 31.355469 32.699219 31.546875 32.824219 31.738281 32.945312 C 31.835938 33.011719 31.9375 33.074219 32.039062 33.144531 C 32.132812 33.203125 32.222656 33.261719 32.320312 33.324219 C 32.445312 33.40625 32.574219 33.488281 32.703125 33.574219 C 32.785156 33.574219 32.871094 33.574219 32.957031 33.574219 C 33.015625 33.632812 33.074219 33.695312 33.132812 33.753906 C 33.328125 33.96875 33.328125 33.96875 33.597656 34.015625 C 33.910156 34.089844 34.015625 34.230469 34.234375 34.457031 C 34.320312 34.457031 34.402344 34.457031 34.492188 34.457031 C 34.621094 34.578125 34.75 34.703125 34.875 34.832031 C 35.214844 35.105469 35.214844 35.105469 35.511719 35.082031 C 35.609375 35.179688 35.703125 35.277344 35.800781 35.375 C 36.15625 35.71875 36.46875 35.882812 36.917969 36.089844 C 37.003906 36.171875 37.085938 36.253906 37.171875 36.339844 C 37.34375 36.46875 37.511719 36.59375 37.683594 36.71875 C 38.214844 37.105469 38.726562 37.511719 39.234375 37.929688 C 39.59375 38.230469 39.59375 38.230469 39.984375 38.480469 C 40.101562 38.605469 40.214844 38.738281 40.328125 38.871094 C 40.777344 39.398438 41.246094 39.914062 41.773438 40.367188 C 41.855469 40.367188 41.941406 40.367188 42.027344 40.367188 C 42.058594 40.457031 42.089844 40.550781 42.125 40.648438 C 42.296875 41.023438 42.488281 41.222656 42.792969 41.496094 C 43.046875 41.746094 43.148438 41.941406 43.304688 42.25 C 43.390625 42.335938 43.472656 42.417969 43.5625 42.503906 C 43.617188 42.601562 43.675781 42.699219 43.738281 42.800781 C 43.929688 43.136719 43.929688 43.136719 44.207031 43.375 C 44.515625 43.695312 44.574219 43.96875 44.710938 44.390625 C 44.910156 44.773438 45.128906 45.144531 45.347656 45.519531 C 45.476562 45.773438 45.476562 45.773438 45.597656 46.195312 C 45.710938 46.628906 45.710938 46.628906 45.867188 46.917969 C 46.011719 47.203125 46.054688 47.476562 46.117188 47.785156 C 46.15625 47.855469 46.195312 47.929688 46.238281 48.003906 C 46.414062 48.375 46.457031 48.730469 46.515625 49.136719 C 46.535156 49.285156 46.558594 49.429688 46.578125 49.582031 C 46.59375 49.695312 46.609375 49.804688 46.625 49.921875 C 47.027344 49.757812 47.027344 49.757812 47.265625 49.417969 C 47.316406 49.351562 47.371094 49.285156 47.425781 49.214844 C 47.625 48.949219 47.808594 48.675781 47.992188 48.398438 C 48.046875 48.3125 48.105469 48.226562 48.160156 48.136719 C 48.308594 47.917969 48.308594 47.917969 48.289062 47.660156 C 48.378906 47.574219 48.378906 47.574219 48.472656 47.484375 C 48.6875 47.296875 48.6875 47.296875 48.734375 47.03125 C 48.796875 46.777344 48.796875 46.777344 48.980469 46.605469 C 49.257812 46.320312 49.320312 46.019531 49.4375 45.648438 C 49.519531 45.476562 49.601562 45.308594 49.691406 45.144531 C 49.734375 45.0625 49.777344 44.976562 49.820312 44.890625 C 49.777344 44.808594 49.734375 44.726562 49.691406 44.640625 C 49.777344 44.597656 49.859375 44.558594 49.949219 44.515625 C 50.042969 44.265625 50.125 44.015625 50.203125 43.761719 C 50.246094 43.636719 50.289062 43.511719 50.332031 43.382812 C 50.289062 43.300781 50.246094 43.21875 50.203125 43.132812 C 50.289062 43.132812 50.371094 43.132812 50.460938 43.132812 C 50.542969 42.777344 50.625 42.417969 50.707031 42.0625 C 50.730469 41.964844 50.753906 41.863281 50.777344 41.761719 C 51.398438 39.046875 51.316406 36.015625 50.585938 33.324219 C 50.503906 33.324219 50.417969 33.324219 50.332031 33.324219 C 50.355469 33.25 50.378906 33.171875 50.402344 33.09375 C 50.488281 32.800781 50.488281 32.800781 50.332031 32.441406 C 50.246094 32.441406 50.164062 32.441406 50.074219 32.441406 C 50.117188 32.320312 50.160156 32.195312 50.203125 32.066406 C 50.121094 32.066406 50.035156 32.066406 49.949219 32.066406 C 49.992188 31.941406 50.03125 31.816406 50.074219 31.6875 C 49.964844 31.355469 49.964844 31.355469 49.820312 31.058594 C 49.734375 31.058594 49.652344 31.058594 49.566406 31.058594 C 49.570312 30.964844 49.574219 30.875 49.582031 30.777344 C 49.5625 30.421875 49.492188 30.230469 49.308594 29.929688 C 49.226562 29.929688 49.140625 29.929688 49.054688 29.929688 C 49.003906 29.691406 49.003906 29.691406 48.949219 29.449219 C 48.84375 29.03125 48.746094 28.832031 48.414062 28.542969 C 48.328125 28.335938 48.242188 28.128906 48.160156 27.917969 C 47.902344 27.457031 47.605469 27.0625 47.265625 26.660156 C 46.753906 26.03125 46.753906 26.03125 46.507812 25.722656 C 46.316406 25.488281 46.121094 25.253906 45.925781 25.023438 C 45.644531 24.691406 45.367188 24.355469 45.09375 24.019531 C 44.988281 23.894531 44.882812 23.769531 44.773438 23.640625 C 44.492188 23.308594 44.21875 22.972656 43.945312 22.632812 C 43.839844 22.511719 43.734375 22.386719 43.625 22.257812 C 43.34375 21.925781 43.070312 21.589844 42.792969 21.25 C 42.582031 21 42.367188 20.75 42.15625 20.496094 C 41.765625 20.039062 41.382812 19.578125 41.007812 19.113281 C 40.902344 18.988281 40.796875 18.863281 40.6875 18.738281 C 40.40625 18.40625 40.128906 18.066406 39.855469 17.730469 C 39.75 17.605469 39.644531 17.480469 39.535156 17.351562 C 39.253906 17.019531 38.980469 16.683594 38.707031 16.347656 C 38.546875 16.160156 38.546875 16.160156 38.386719 15.96875 C 38.105469 15.636719 37.832031 15.300781 37.558594 14.964844 C 37.398438 14.777344 37.398438 14.777344 37.238281 14.585938 C 36.957031 14.253906 36.679688 13.917969 36.40625 13.582031 C 36.25 13.394531 36.25 13.394531 36.085938 13.203125 C 35.804688 12.871094 35.53125 12.535156 35.257812 12.199219 C 35.152344 12.074219 35.046875 11.949219 34.9375 11.820312 C 34.65625 11.488281 34.382812 11.152344 34.109375 10.8125 C 34.003906 10.691406 33.898438 10.566406 33.789062 10.4375 C 33.589844 10.199219 33.390625 9.964844 33.199219 9.722656 C 32.699219 9.109375 32.699219 9.109375 31.960938 8.890625 C 31.453125 8.9375 31.269531 9.082031 30.914062 9.429688 Z M 18.394531 24.519531 C 18.359375 24.597656 18.328125 24.671875 18.292969 24.75 C 18.136719 25.03125 17.988281 25.179688 17.757812 25.402344 C 17.472656 25.730469 17.191406 26.0625 16.925781 26.40625 C 16.761719 26.625 16.582031 26.832031 16.398438 27.035156 C 16.121094 27.378906 16.054688 27.511719 15.96875 27.917969 C 15.84375 28.042969 15.714844 28.171875 15.585938 28.292969 C 15.585938 28.375 15.585938 28.460938 15.585938 28.542969 C 15.527344 28.597656 15.46875 28.648438 15.410156 28.703125 C 15.132812 28.996094 15.070312 29.296875 14.945312 29.675781 C 14.824219 29.890625 14.695312 30.097656 14.5625 30.304688 C 14.398438 30.601562 14.285156 30.871094 14.179688 31.195312 C 14.050781 31.5625 14.050781 31.5625 13.796875 31.941406 C 13.753906 32.191406 13.710938 32.441406 13.667969 32.695312 C 13.628906 32.769531 13.589844 32.839844 13.550781 32.917969 C 13.371094 33.285156 13.296875 33.648438 13.214844 34.046875 C 13.164062 34.265625 13.164062 34.265625 13.117188 34.492188 C 12.898438 35.652344 12.871094 36.789062 12.871094 37.96875 C 12.871094 38.0625 12.871094 38.152344 12.871094 38.25 C 12.867188 39.617188 12.941406 40.921875 13.285156 42.25 C 13.316406 42.382812 13.316406 42.382812 13.351562 42.515625 C 13.429688 42.808594 13.515625 43.101562 13.605469 43.390625 C 13.636719 43.5 13.671875 43.605469 13.703125 43.71875 C 13.773438 43.941406 13.847656 44.167969 13.925781 44.390625 C 14.007812 44.390625 14.09375 44.390625 14.179688 44.390625 C 14.179688 44.597656 14.179688 44.804688 14.179688 45.019531 C 14.265625 45.019531 14.347656 45.019531 14.433594 45.019531 C 14.425781 45.105469 14.417969 45.1875 14.410156 45.277344 C 14.449219 45.859375 14.652344 46.363281 15.074219 46.777344 C 15.359375 47.113281 15.480469 47.363281 15.585938 47.785156 C 15.667969 47.824219 15.753906 47.867188 15.839844 47.910156 C 15.855469 47.984375 15.871094 48.054688 15.886719 48.128906 C 15.996094 48.515625 16.21875 48.738281 16.480469 49.042969 C 16.605469 49.210938 16.734375 49.378906 16.863281 49.542969 C 17.15625 49.914062 17.457031 50.277344 17.765625 50.636719 C 17.859375 50.746094 17.859375 50.746094 17.953125 50.859375 C 18.15625 51.085938 18.15625 51.085938 18.523438 51.304688 C 18.71875 51.523438 18.902344 51.75 19.085938 51.976562 C 19.308594 52.203125 19.511719 52.304688 19.800781 52.4375 C 19.972656 52.601562 20.144531 52.769531 20.3125 52.941406 C 20.480469 53.070312 20.648438 53.195312 20.824219 53.316406 C 20.953125 53.414062 20.953125 53.414062 21.085938 53.515625 C 21.421875 53.757812 21.699219 53.941406 22.101562 54.0625 C 22.488281 54.199219 22.589844 54.300781 22.867188 54.574219 C 22.992188 54.617188 23.121094 54.65625 23.25 54.699219 C 23.632812 54.828125 23.632812 54.828125 23.808594 55.023438 C 24.066406 55.246094 24.207031 55.242188 24.542969 55.273438 C 24.707031 55.292969 24.871094 55.3125 25.039062 55.328125 C 25.082031 55.414062 25.121094 55.496094 25.164062 55.582031 C 25.445312 55.71875 25.445312 55.71875 25.78125 55.839844 C 25.890625 55.882812 26.003906 55.925781 26.117188 55.96875 C 27.601562 56.488281 29.34375 56.789062 30.914062 56.839844 C 31.066406 56.84375 31.214844 56.847656 31.371094 56.855469 C 33.453125 56.886719 35.417969 56.601562 37.429688 56.082031 C 37.429688 56 37.429688 55.917969 37.429688 55.832031 C 37.554688 55.875 37.683594 55.914062 37.8125 55.957031 C 37.8125 55.875 37.8125 55.792969 37.8125 55.707031 C 37.890625 55.730469 37.96875 55.753906 38.050781 55.777344 C 38.328125 55.863281 38.328125 55.863281 38.578125 55.707031 C 38.578125 55.625 38.578125 55.539062 38.578125 55.457031 C 38.789062 55.457031 39 55.457031 39.21875 55.457031 C 39.21875 55.371094 39.21875 55.289062 39.21875 55.203125 C 39.308594 55.210938 39.402344 55.21875 39.496094 55.226562 C 39.96875 55.195312 40.144531 55.144531 40.496094 54.828125 C 40.585938 54.371094 40.566406 53.921875 40.550781 53.457031 C 40.546875 53.328125 40.546875 53.199219 40.542969 53.0625 C 40.515625 51.949219 40.398438 50.878906 40.113281 49.796875 C 40.027344 49.796875 39.941406 49.796875 39.855469 49.796875 C 39.898438 49.671875 39.941406 49.546875 39.984375 49.417969 C 39.898438 49.417969 39.816406 49.417969 39.730469 49.417969 C 39.769531 49.292969 39.8125 49.171875 39.855469 49.042969 C 39.773438 49.042969 39.6875 49.042969 39.601562 49.042969 C 39.644531 48.917969 39.683594 48.792969 39.730469 48.664062 C 39.644531 48.539062 39.558594 48.414062 39.472656 48.289062 C 39.433594 48.164062 39.394531 48.039062 39.351562 47.910156 C 39.21875 47.535156 39.113281 47.421875 38.835938 47.15625 C 38.792969 46.988281 38.75 46.820312 38.707031 46.652344 C 38.644531 46.59375 38.585938 46.535156 38.523438 46.472656 C 38.273438 46.222656 38.199219 45.96875 38.066406 45.648438 C 37.898438 45.457031 37.898438 45.457031 37.683594 45.269531 C 37.40625 44.945312 37.132812 44.621094 36.859375 44.292969 C 36.445312 43.800781 36.015625 43.40625 35.511719 43.007812 C 35.402344 42.894531 35.292969 42.78125 35.175781 42.667969 C 34.902344 42.375 34.902344 42.375 34.617188 42.25 C 34.25 42.070312 34.011719 41.785156 33.722656 41.496094 C 33.261719 41.195312 32.804688 40.917969 32.304688 40.679688 C 31.976562 40.511719 31.796875 40.375 31.554688 40.113281 C 31.210938 39.839844 31.210938 39.839844 30.914062 39.863281 C 30.832031 39.777344 30.75 39.695312 30.667969 39.609375 C 30.417969 39.316406 30.417969 39.316406 30.019531 39.359375 C 29.890625 39.234375 29.761719 39.109375 29.636719 38.980469 C 29.550781 38.980469 29.46875 38.980469 29.382812 38.980469 C 29.253906 38.855469 29.125 38.730469 28.996094 38.605469 C 28.914062 38.605469 28.828125 38.605469 28.742188 38.605469 C 28.53125 38.394531 28.316406 38.1875 28.105469 37.976562 C 27.914062 37.914062 27.914062 37.914062 27.71875 37.851562 C 27.636719 37.765625 27.550781 37.683594 27.464844 37.597656 C 27.359375 37.535156 27.253906 37.472656 27.144531 37.410156 C 26.828125 37.222656 26.828125 37.222656 26.570312 36.96875 C 26.472656 36.894531 26.375 36.820312 26.277344 36.742188 C 25.933594 36.46875 25.933594 36.46875 25.613281 36.144531 C 25.316406 35.832031 25.316406 35.832031 24.980469 35.664062 C 24.597656 35.425781 24.371094 35.148438 24.085938 34.804688 C 23.894531 34.589844 23.699219 34.417969 23.472656 34.242188 C 23.140625 33.96875 23.039062 33.824219 22.867188 33.449219 C 22.699219 33.277344 22.527344 33.109375 22.355469 32.945312 C 22.132812 32.675781 21.953125 32.414062 21.78125 32.113281 C 21.597656 31.78125 21.597656 31.78125 21.207031 31.5625 C 21.160156 31.394531 21.117188 31.226562 21.078125 31.058594 C 20.953125 30.996094 20.953125 30.996094 20.824219 30.933594 C 20.777344 30.765625 20.734375 30.597656 20.695312 30.429688 C 20.589844 30.207031 20.480469 29.988281 20.367188 29.769531 C 20.308594 29.660156 20.25 29.546875 20.191406 29.429688 C 20.148438 29.347656 20.101562 29.261719 20.054688 29.171875 C 19.972656 29.171875 19.886719 29.171875 19.800781 29.171875 C 19.804688 29.082031 19.8125 28.992188 19.816406 28.898438 C 19.800781 28.519531 19.703125 28.257812 19.542969 27.917969 C 19.460938 27.917969 19.375 27.917969 19.289062 27.917969 C 19.351562 27.730469 19.351562 27.730469 19.417969 27.539062 C 19.332031 27.539062 19.25 27.539062 19.160156 27.539062 C 19.1875 27.464844 19.214844 27.394531 19.242188 27.320312 C 19.320312 27.039062 19.320312 27.039062 19.171875 26.816406 C 18.9375 26.332031 18.925781 25.804688 18.863281 25.273438 C 18.777344 24.890625 18.707031 24.757812 18.394531 24.519531 Z M 18.394531 24.519531 "/>
</g>
</svg>
